<?xml version="1.0" standalone="no"?>
<!DOCTYPE svg PUBLIC "-//W3C//DTD SVG 20010904//EN"
 "http://www.w3.org/TR/2001/REC-SVG-20010904/DTD/svg10.dtd">
<svg version="1.0" xmlns="http://www.w3.org/2000/svg"
 width="25px" height="25px" viewBox="0 0 360.000000 360.000000"
 preserveAspectRatio="xMidYMid meet">

<g transform="translate(0.000000,360.000000) scale(0.100000,-0.100000)"
fill="#000000" stroke="none">
<path d="M1245 3404 c-335 -59 -625 -258 -802 -550 -125 -206 -179 -440 -161
-696 36 -520 437 -962 958 -1054 109 -19 301 -19 411 0 149 27 310 92 435 176
l41 28 404 -405 c268 -268 418 -411 444 -424 77 -36 165 -14 223 56 29 35 55
113 47 139 -2 6 -6 25 -10 41 -5 22 -114 138 -422 447 l-416 417 25 39 c15 21
44 74 66 118 314 630 -5 1399 -674 1623 -178 60 -391 77 -569 45z m392 -344
c306 -73 541 -309 614 -618 28 -117 23 -321 -11 -427 -72 -225 -220 -400 -425
-503 -314 -158 -686 -102 -942 141 -221 210 -310 517 -234 807 81 309 334 549
642 609 85 17 268 12 356 -9z"/>
</g>
</svg>
